{"title":"Crime.Stories.Kendall.Francois.NYC.Killer.WEBRip.P2P4FREE","uid":8536905,"size":117287764,"categoryP":"video","categoryS":"tv_shows","magnet":"?xt=urn:btih:6c627f56ee475fd2dfdf5cdf072fd54cc990a3b6&amp;dn=Crime.Stories.Kendall.Francois.NYC.Killer.WEBRip.P2P4FREE&amp;tr=udp%3A%2F%2Ftracker.openbittorrent.com%3A80&amp;tr=udp%3A%2F%2Fopen.demonii.com%3A1337&amp;tr=udp%3A%2F%2Ftracker.coppersurfer.tk%3A6969&amp;tr=udp%3A%2F%2Fexodus.desync.com%3A6969","seeders":1,"leechers":1,"uploader":"P2P4FREE","files":1,"time":1370285116,"description":"General\n-----------------------------------------------------------------\nFormat                                   : MPEG-4\nFormat profile                           : Base Media / Version 2\nCodec ID                                 : mp42\nFile size                                : 112 MiB\nDuration                                 : 41mn 57s\nOverall bit rate mode                    : Variable\nOverall bit rate                         : 373 Kbps\n\nVideo\n-----------------------------------------------------------------\nID                                       : 1\nFormat                                   : AVC\nFormat/Info                              : Advanced Video Codec\nFormat profile                           : &lt;a class=&quot;__cf_email__&quot; href=&quot;/cdn-cgi/l/email-protection&quot; data-cfemail=&quot;8dcfecfee8e1e4e3e8cdc1bea3bd&quot;&gt;[email&amp;#160;protected]&lt;/a&gt;&lt;script cf-hash='f9e31' type=&quot;text/javascript&quot;&gt;\n/* &lt;![CDATA[ */!function(){try{var t=&quot;currentScript&quot;in document?document.currentScript:function(){for(var t=document.getElementsByTagName(&quot;script&quot;),e=t.length;e--;)if(t[e].getAttribute(&quot;cf-hash&quot;))return t[e]}();if(t&amp;&amp;t.previousSibling){var e,r,n,i,c=t.previousSibling,a=c.getAttribute(&quot;data-cfemail&quot;);if(a){for(e=&quot;&quot;,r=parseInt(a.substr(0,2),16),n=2;a.length-n;n+=2)i=parseInt(a.substr(n,2),16)^r,e+=String.fromCharCode(i);e=document.createTextNode(e),c.parentNode.replaceChild(e,c)}}}catch(u){}}();/* ]]&gt; */&lt;/script&gt;\nFormat settings, CABAC                   : No\nFormat settings, ReFrames                : 1 frame\nCodec ID                                 : avc1\nCodec ID/Info                            : Advanced Video Coding\nDuration                                 : 41mn 57s\nBit rate                                 : 274 Kbps\nMaximum bit rate                         : 1 077 Kbps\nWidth                                    : 480 pixels\nHeight                                   : 360 pixels\nDisplay aspect ratio                     : 4:3\nFrame rate mode                          : Constant\nFrame rate                               : 30.000 fps\nColor space                              : YUV\nChroma subsampling                       : 4:2:0\nBit depth                                : 8 bits\nScan type                                : Progressive\nBits/(Pixel*Frame)                       : 0.053\nStream size                              : 82.2 MiB (74%)\n\nAudio\n-----------------------------------------------------------------\nID                                       : 2\nFormat                                   : AAC\nFormat/Info                              : Advanced Audio Codec\nFormat profile                           : LC\nCodec ID                                 : 40\nDuration                                 : 41mn 57s\nBit rate mode                            : Variable\nBit rate                                 : 96.0 Kbps\nMaximum bit rate                         : 103 Kbps\nChannel(s)                               : 2 channels\nChannel positions                        : Front: L R\nSampling rate                            : 44.1 KHz\nCompression mode                         : Lossy\nStream size                              : 28.8 MiB (26%)\n-----------------------------------------------------------------\n\nSCREENS\n----------------------------------------------------------------- &lt;a href=&quot;\nhttp://share.pho.to/2Se9p/original&quot; rel=&quot;nofollow&quot; target=&quot;_NEW&quot;&gt;\nhttp://share.pho.to/2Se9p/original&lt;/a&gt; &lt;a href=&quot;\nhttp://share.pho.to/2Se9r/original&quot; rel=&quot;nofollow&quot; target=&quot;_NEW&quot;&gt;\nhttp://share.pho.to/2Se9r/original&lt;/a&gt; &lt;a href=&quot;\nhttp://share.pho.to/2Se9y/original&quot; rel=&quot;nofollow&quot; target=&quot;_NEW&quot;&gt;\nhttp://share.pho.to/2Se9y/original&lt;/a&gt; &lt;a href=&quot;\nhttp://share.pho.to/2SeA6/original&quot; rel=&quot;nofollow&quot; target=&quot;_NEW&quot;&gt;\nhttp://share.pho.to/2SeA6/original&lt;/a&gt; &lt;a href=&quot;\nhttp://share.pho.to/2SeAJ/original&quot; rel=&quot;nofollow&quot; target=&quot;_NEW&quot;&gt;\nhttp://share.pho.to/2SeAJ/original&lt;/a&gt; &lt;a href=&quot;\nhttp://share.pho.to/2SeAT/original&quot; rel=&quot;nofollow&quot; target=&quot;_NEW&quot;&gt;\nhttp://share.pho.to/2SeAT/original&lt;/a&gt;\n-----------------------------------------------------------------\n\nEnjoy ;)","torrent":{"xt":"urn:btih:6c627f56ee475fd2dfdf5cdf072fd54cc990a3b6","amp;dn":"Crime.Stories.Kendall.Francois.NYC.Killer.WEBRip.P2P4FREE","amp;tr":["udp%3A%2F%2Ftracker.openbittorrent.com%3A80","udp%3A%2F%2Fopen.demonii.com%3A1337","udp%3A%2F%2Ftracker.coppersurfer.tk%3A6969","udp%3A%2F%2Fexodus.desync.com%3A6969"],"infoHash":"6c627f56ee475fd2dfdf5cdf072fd54cc990a3b6","infoHashBuffer":{"type":"Buffer","data":[108,98,127,86,238,71,95,210,223,223,92,223,7,47,213,76,201,144,163,182]},"announce":[],"urlList":[]}}